<svg width="24" height="34" viewBox="0 0 24 34" fill="none" xmlns="http://www.w3.org/2000/svg">
<g clip-path="url(#clip0_4103_508)">
<path d="M2.243 10.854L11.49 5.30999C11.6454 5.21674 11.8233 5.16748 12.0045 5.16748C12.1857 5.16748 12.3636 5.21674 12.519 5.30999L21.757 10.855C21.8311 10.8994 21.8925 10.9623 21.9351 11.0375C21.9776 11.1126 22 11.1976 22 11.284V24C22 24.2652 21.8946 24.5196 21.7071 24.7071C21.5196 24.8946 21.2652 25 21 25H3C2.73478 25 2.48043 24.8946 2.29289 24.7071C2.10536 24.5196 2 24.2652 2 24V11.283C1.99998 11.1966 2.02236 11.1116 2.06495 11.0365C2.10753 10.9613 2.16888 10.8984 2.243 10.854ZM4 12.133V23H20V12.132L12.004 7.33199L4 12.132V12.133ZM12.06 17.698L17.356 13.235L18.644 14.765L12.074 20.302L5.364 14.772L6.636 13.228L12.06 17.698Z" fill="#EB5757"/>
</g>
<defs>
<clipPath id="clip0_4103_508">
<rect width="24" height="24" fill="white" transform="translate(0 4)"/>
</clipPath>
</defs>
</svg>
